<?xml version="1.0" standalone="no"?>
<!DOCTYPE svg PUBLIC "-//W3C//DTD SVG 20010904//EN"
 "http://www.w3.org/TR/2001/REC-SVG-20010904/DTD/svg10.dtd">
<svg version="1.0" xmlns="http://www.w3.org/2000/svg"
 width="580.000000pt" height="387.000000pt" viewBox="0 0 580.000000 387.000000"
 preserveAspectRatio="xMidYMid meet">

<g transform="translate(0.000000,387.000000) scale(0.100000,-0.100000)"
fill="#ffffff" stroke="none">
<path d="M2800 3124 c-84 -36 -139 -132 -126 -221 16 -120 126 -206 241 -188
174 26 245 248 119 367 -60 56 -160 74 -234 42z m140 -79 c68 -35 92 -100 62
-169 -59 -131 -249 -84 -245 61 3 88 104 149 183 108z"/>
<path d="M2590 2751 c-66 -21 -130 -73 -144 -119 -4 -12 -36 -30 -89 -50 -267
-102 -460 -306 -538 -568 -14 -45 -23 -111 -26 -190 -6 -135 8 -232 54 -366
l26 -78 -38 -177 c-51 -237 -49 -225 -28 -251 26 -33 78 -41 251 -42 170 0
200 8 227 60 9 17 17 30 18 30 1 0 27 -10 57 -21 130 -50 280 -79 410 -79 l68
0 6 -45 c15 -100 86 -132 271 -122 169 8 215 44 215 168 l0 65 108 1 c199 1
220 21 229 222 6 124 8 133 37 183 31 52 33 53 121 78 50 15 100 32 112 38 71
38 96 236 49 386 -19 60 -37 95 -65 127 -37 42 -41 44 -92 42 l-54 -1 -25 56
c-22 51 -25 71 -25 187 -1 111 -4 138 -23 186 -27 68 -92 145 -127 151 -37 7
-99 -27 -144 -79 l-38 -45 -84 41 c-114 56 -257 98 -380 111 -98 11 -105 13
-146 50 -57 50 -131 70 -193 51z m111 -86 c38 -20 69 -70 69 -112 0 -31 -2
-33 -37 -33 -21 0 -76 -5 -121 -12 -71 -9 -85 -9 -93 3 -26 41 7 122 61 151
42 22 81 23 121 3z m365 -140 c175 -44 334 -136 453 -260 63 -67 151 -196 151
-222 0 -6 -11 -14 -25 -17 -16 -4 -27 -16 -31 -33 -11 -42 7 -58 65 -58 l51 1
-6 -71 c-8 -99 18 -213 74 -317 1 -3 -12 -9 -30 -13 -28 -7 -35 -4 -58 23 -14
17 -32 48 -39 69 -25 71 -61 92 -95 54 -22 -25 -10 -73 38 -154 35 -57 35 -59
19 -85 -41 -66 -123 -157 -187 -211 -73 -59 -179 -131 -195 -131 -5 0 -19 -12
-30 -26 -21 -27 -19 -51 7 -71 12 -10 13 -25 6 -85 -8 -65 -11 -73 -34 -79
-40 -11 -219 -10 -241 1 -27 15 -25 62 4 75 25 11 34 49 18 69 -9 10 -60 15
-194 19 -245 7 -374 41 -546 143 -70 42 -106 41 -117 -3 -7 -27 7 -45 64 -83
16 -10 21 -21 17 -32 -6 -16 -24 -18 -160 -18 l-154 0 9 31 c5 17 18 77 30
133 11 55 30 120 42 143 l22 41 -28 61 c-75 167 -97 385 -56 547 54 215 193
383 405 489 50 25 96 45 103 45 19 0 14 -24 -8 -38 -24 -15 -26 -54 -4 -72 12
-11 32 -10 112 5 100 19 332 27 402 13 33 -6 37 -4 66 36 l32 43 -37 11 c-20
6 -55 14 -78 18 -34 5 -43 11 -43 26 0 18 5 19 58 13 31 -4 98 -18 148 -30z
m528 -57 c14 -29 29 -80 32 -113 l7 -60 -74 69 c-41 38 -75 73 -77 77 -5 11
58 79 73 79 8 0 25 -24 39 -52z m280 -549 c14 -17 26 -34 26 -39 0 -5 3 -15 6
-24 4 -11 0 -16 -13 -16 -10 0 -23 -4 -28 -9 -6 -4 -23 -11 -39 -15 l-29 -7 6
50 c6 53 22 91 36 91 5 0 21 -14 35 -31z m56 -228 c0 -102 -39 -133 -77 -63
-34 61 -38 82 -15 82 11 0 25 7 32 15 7 8 23 15 36 15 22 0 24 -4 24 -49z
m-360 -543 c0 -29 -4 -59 -9 -66 -5 -9 -37 -15 -92 -18 -83 -5 -84 -5 -59 13
14 10 52 41 85 70 33 28 63 52 68 52 4 1 7 -23 7 -51z"/>
<path d="M3027 2440 c-45 -39 -87 -135 -99 -227 -12 -87 1 -226 27 -291 16
-38 21 -42 51 -42 22 0 37 6 41 16 3 9 -2 58 -12 110 -27 144 -13 259 41 342
14 21 17 21 42 8 33 -17 83 -70 108 -114 21 -37 45 -48 72 -33 29 16 34 39 16
77 -39 83 -163 184 -226 184 -16 0 -41 -12 -61 -30z"/>
<path d="M3507 2193 c-12 -11 -8 -62 7 -98 18 -41 62 -67 77 -44 32 52 -44
182 -84 142z"/>
<path d="M3340 2120 c-24 -44 32 -160 77 -160 46 0 38 88 -14 150 -29 35 -48
38 -63 10z"/>
<path d="M2018 1765 c-9 -20 -8 -45 4 -115 37 -209 168 -375 373 -475 116 -56
205 -75 347 -75 125 0 158 12 158 54 0 39 -19 45 -140 44 -145 -2 -211 12
-329 69 -177 85 -288 231 -313 415 -6 45 -16 89 -21 96 -5 6 -22 12 -38 12
-22 0 -32 -7 -41 -25z"/>
</g>
</svg>
